<svg xmlns="http://www.w3.org/2000/svg" height="511pt" version="1.1" viewBox="0 -17 511.9999 511" width="511pt">
<g id="surface1">
<path d="M 176.457031 477.582031 C 163.6875 476.664062 153.28125 464.914062 153.28125 452.109375 L 153.28125 315.945312 C 153.28125 303.140625 163.6875 291.390625 176.457031 290.46875 C 191.117188 289.414062 203.339844 300.996094 203.339844 315.433594 L 203.339844 452.621094 C 203.339844 467.058594 191.117188 478.640625 176.457031 477.582031 Z M 176.457031 477.582031 " style=" stroke:none;fill-rule:nonzero;fill:rgb(33.333333%,41.176471%,43.137255%);fill-opacity:1;" />
<path d="M 307.398438 148.632812 L 369.425781 148.632812 L 369.425781 234.027344 L 307.398438 234.027344 Z M 307.398438 148.632812 " style=" stroke:none;fill-rule:nonzero;fill:rgb(41.176471%,43.137255%,45.098039%);fill-opacity:1;" />
<path d="M 448.878906 166.273438 L 221.382812 166.273438 C 214.519531 166.273438 208.957031 160.707031 208.957031 153.847656 L 208.957031 24.988281 C 208.957031 18.125 214.519531 12.5625 221.382812 12.5625 L 448.878906 12.5625 C 455.742188 12.5625 461.304688 18.125 461.304688 24.988281 L 461.304688 153.847656 C 461.304688 160.710938 455.742188 166.273438 448.878906 166.273438 Z M 448.878906 166.273438 " style=" stroke:none;fill-rule:nonzero;fill:rgb(21.568627%,23.529412%,25.490196%);fill-opacity:1;" />
<path d="M 442.683594 152.90625 L 227.578125 152.90625 C 224.375 152.90625 221.777344 150.308594 221.777344 147.105469 L 221.777344 31.730469 C 221.777344 28.527344 224.375 25.929688 227.578125 25.929688 L 442.683594 25.929688 C 445.886719 25.929688 448.484375 28.527344 448.484375 31.730469 L 448.484375 147.101562 C 448.484375 150.308594 445.886719 152.90625 442.683594 152.90625 Z M 442.683594 152.90625 " style=" stroke:none;fill-rule:nonzero;fill:rgb(100%,100%,100%);fill-opacity:1;" />
<path d="M 368.054688 131.527344 L 340.4375 103.90625 C 336.996094 104.558594 333.273438 103.355469 330.875 100.292969 C 328.132812 96.785156 328.160156 91.710938 330.941406 88.230469 C 334.648438 83.585938 341.441406 83.304688 345.523438 87.386719 C 347.898438 89.765625 348.796875 93.058594 348.214844 96.128906 L 375.832031 123.746094 L 352.980469 69.558594 L 344.878906 69.558594 C 337.554688 69.558594 330.53125 66.648438 325.351562 61.472656 L 315.941406 52.0625 C 313.015625 49.132812 308.269531 49.132812 305.34375 52.0625 L 296.367188 61.035156 C 293.4375 63.964844 293.4375 68.710938 296.367188 71.636719 L 305.777344 81.046875 C 310.953125 86.226562 313.863281 93.25 313.863281 100.570312 L 313.863281 108.675781 Z M 368.054688 131.527344 " style=" stroke:none;fill-rule:nonzero;fill:rgb(39.215686%,68.627451%,100%);fill-opacity:1;" />
<path d="M 377.695312 226.6875 C 377.695312 211.558594 361.320312 199.296875 341.117188 199.296875 C 320.917969 199.296875 304.539062 211.558594 304.539062 226.6875 C 304.539062 241.8125 320.917969 254.078125 341.117188 254.078125 C 361.320312 254.078125 377.695312 241.8125 377.695312 226.6875 Z M 377.695312 226.6875 " style=" stroke:none;fill-rule:nonzero;fill:rgb(21.568627%,23.529412%,25.490196%);fill-opacity:1;" />
<path d="M 464.207031 477.554688 C 456.34375 476.6875 450.546875 469.746094 450.546875 461.832031 L 450.546875 248.953125 C 450.546875 241.042969 456.34375 234.101562 464.207031 233.234375 C 473.503906 232.210938 481.371094 239.460938 481.371094 248.550781 L 481.371094 462.238281 C 481.371094 471.328125 473.503906 478.578125 464.207031 477.554688 Z M 464.207031 477.554688 " style=" stroke:none;fill-rule:nonzero;fill:rgb(72.941176%,40.392157%,27.45098%);fill-opacity:1;" />
<path d="M 495.292969 265.257812 L 187.613281 265.257812 C 179.195312 265.257812 171.3125 258.4375 170.578125 250.054688 C 169.714844 240.148438 177.496094 231.84375 187.222656 231.84375 L 494.902344 231.84375 C 503.316406 231.84375 511.199219 238.664062 511.933594 247.046875 C 512.800781 256.949219 505.015625 265.257812 495.292969 265.257812 Z M 495.292969 265.257812 " style=" stroke:none;fill-rule:nonzero;fill:rgb(88.627451%,54.901961%,44.313725%);fill-opacity:1;" />
<path d="M 348.410156 200.667969 C 348.695312 188.25 338.335938 178.523438 326.207031 179.304688 L 251.421875 184.152344 L 227.148438 134.179688 C 218.777344 116.945312 200.992188 105.8125 181.835938 105.8125 C 161.078125 105.8125 99.398438 105.8125 79.265625 105.8125 C 52.183594 105.8125 30.039062 127.84375 29.90625 155.03125 L 29.90625 305.234375 C 29.90625 316.105469 38.035156 325.523438 48.867188 326.480469 C 61.242188 327.570312 71.621094 317.851562 71.621094 305.703125 L 71.621094 155.136719 C 71.644531 150.941406 75.074219 147.527344 79.265625 147.527344 L 80.351562 147.527344 L 80.351562 305.703125 L 190.835938 305.703125 L 190.835938 154.898438 L 220.019531 214.984375 C 223.695312 222.554688 231.613281 227.242188 240.132812 226.6875 L 328.4375 220.964844 C 339.285156 220.261719 348.15625 211.535156 348.410156 200.667969 Z M 348.410156 200.667969 " style=" stroke:none;fill-rule:nonzero;fill:rgb(72.941176%,40.392157%,27.45098%);fill-opacity:1;" />
<path d="M 243.722656 168.300781 L 227.148438 134.179688 C 218.78125 116.945312 200.992188 105.8125 181.835938 105.8125 L 79.265625 105.8125 C 52.1875 105.8125 30.042969 127.84375 29.90625 155.03125 L 29.90625 305.234375 C 29.90625 316.105469 38.039062 325.523438 48.871094 326.480469 C 61.242188 327.570312 71.621094 317.851562 71.621094 305.703125 L 71.621094 155.136719 C 71.644531 150.941406 75.074219 147.527344 79.265625 147.527344 L 80.351562 147.527344 L 80.351562 305.703125 L 190.835938 305.703125 L 190.835938 154.898438 L 207.257812 188.714844 Z M 243.722656 168.300781 " style=" stroke:none;fill-rule:nonzero;fill:rgb(100%,85.490196%,32.156863%);fill-opacity:1;" />
<path d="M 105.941406 460.960938 C 99.917969 460.003906 95.636719 454.546875 95.636719 448.445312 L 95.636719 412.007812 C 95.636719 405.90625 99.917969 400.449219 105.941406 399.492188 C 113.648438 398.269531 120.296875 404.1875 120.296875 411.660156 L 120.296875 448.792969 C 120.296875 456.265625 113.648438 462.1875 105.941406 460.960938 Z M 105.941406 460.960938 " style=" stroke:none;fill-rule:nonzero;fill:rgb(21.568627%,23.529412%,25.490196%);fill-opacity:1;" />
<path d="M 235.160156 477.402344 C 221.472656 475.472656 211.941406 462.808594 213.875 449.121094 L 229.574219 337.847656 L 149.621094 337.847656 C 136.816406 337.847656 125.066406 327.441406 124.148438 314.671875 C 123.09375 300.007812 134.675781 287.785156 149.109375 287.785156 L 258.015625 287.785156 C 262.417969 287.785156 266.800781 288.789062 270.625 290.964844 C 279.898438 296.238281 284.574219 306.359375 283.171875 316.316406 L 263.441406 456.117188 C 261.511719 469.800781 248.851562 479.332031 235.160156 477.402344 Z M 235.160156 477.402344 " style=" stroke:none;fill-rule:nonzero;fill:rgb(45.490196%,51.764706%,53.333333%);fill-opacity:1;" />
<path d="M 92.554688 326.929688 L 123.378906 326.929688 L 123.378906 422.078125 L 92.554688 422.078125 Z M 92.554688 326.929688 " style=" stroke:none;fill-rule:nonzero;fill:rgb(21.568627%,23.529412%,25.490196%);fill-opacity:1;" />
<path d="M 178.3125 43.730469 C 178.3125 67.605469 158.957031 86.960938 135.082031 86.960938 C 111.207031 86.960938 91.851562 67.605469 91.851562 43.730469 C 91.851562 19.855469 111.207031 0.5 135.082031 0.5 C 158.957031 0.5 178.3125 19.855469 178.3125 43.730469 Z M 178.3125 43.730469 " style=" stroke:none;fill-rule:nonzero;fill:rgb(72.941176%,40.392157%,27.45098%);fill-opacity:1;" />
<path d="M 206.324219 302.464844 L 75.824219 302.464844 L 75.824219 351.390625 L 206.324219 351.390625 C 212.75 351.390625 217.960938 346.179688 217.960938 339.753906 L 217.960938 314.101562 C 217.960938 307.675781 212.753906 302.464844 206.324219 302.464844 Z M 206.324219 302.464844 " style=" stroke:none;fill-rule:nonzero;fill:rgb(50.980392%,19.607843%,7.843137%);fill-opacity:1;" />
<path d="M 191.054688 477.652344 C 188.988281 477.652344 186.894531 477.132812 184.972656 476.039062 L 119.039062 438.558594 C 112.171875 434.65625 103.757812 434.65625 96.890625 438.558594 L 30.957031 476.039062 C 25.035156 479.402344 17.511719 477.332031 14.144531 471.410156 C 10.78125 465.492188 12.851562 457.964844 18.769531 454.601562 L 94.089844 411.785156 C 102.695312 406.894531 113.238281 406.894531 121.839844 411.785156 L 197.160156 454.601562 C 203.078125 457.964844 205.152344 465.492188 201.785156 471.410156 C 199.515625 475.40625 195.34375 477.652344 191.054688 477.652344 Z M 191.054688 477.652344 " style=" stroke:none;fill-rule:nonzero;fill:rgb(21.568627%,23.529412%,25.490196%);fill-opacity:1;" />
<path d="M 124.304688 351.390625 L 27.34375 351.390625 C 12.242188 351.390625 0 339.148438 0 324.046875 L 0 172.738281 C 0 157.636719 12.242188 145.394531 27.34375 145.394531 L 124.304688 145.394531 C 139.402344 145.394531 151.644531 157.636719 151.644531 172.738281 L 151.644531 324.046875 C 151.644531 339.148438 139.402344 351.390625 124.304688 351.390625 Z M 124.304688 351.390625 " style=" stroke:none;fill-rule:nonzero;fill:rgb(58.823529%,31.372549%,15.686275%);fill-opacity:1;" />
</g>
</svg>