<?xml version="1.0" encoding="iso-8859-1"?>
<!-- Generator: Adobe Illustrator 19.0.0, SVG Export Plug-In . SVG Version: 6.00 Build 0)  -->
<svg version="1.1" id="Capa_1" xmlns="http://www.w3.org/2000/svg" xmlns:xlink="http://www.w3.org/1999/xlink" x="0px" y="0px"
	 viewBox="0 0 512 512" style="enable-background:new 0 0 512 512;" xml:space="preserve">
<rect x="175.78" y="53.803" style="fill:#CD5014;" width="160.606" height="30.476"/>
<path style="fill:#FF8C46;" d="M359.178,11.814c0-5.735-4.649-10.384-10.384-10.384H163.208c-5.735,0-10.384,4.649-10.384,10.384
	v37.792c0,5.735,4.649,10.384,10.384,10.384h185.586c5.735,0,10.384-4.649,10.384-10.384V11.814z"/>
<path style="fill:#39AE96;" d="M345.675,308.421c-0.411,4.619-4.28,8.16-8.917,8.16H175.243c-4.637,0-8.507-3.541-8.917-8.16
	L146.881,89.478c-0.465-5.234,3.663-9.744,8.917-9.744h200.404c5.255,0,9.382,4.511,8.917,9.744L345.675,308.421z"/>
<path style="fill:#415050;" d="M285.516,512c-13.475,0-24.399-10.924-24.399-24.399V292.572c0-13.475,10.924-24.399,24.399-24.399
	c13.475,0,24.399,10.924,24.399,24.399v195.029C309.915,501.076,298.991,512,285.516,512z"/>
<path style="fill:#55696E;" d="M226.615,512c-13.475,0-24.399-10.924-24.399-24.399V292.572c0-13.475,10.924-24.399,24.399-24.399
	s24.399,10.924,24.399,24.399v195.029C251.014,501.076,240.089,512,226.615,512z"/>
<path style="fill:#FFB69E;" d="M310.752,97.714c-12.281,0-97.171,0-109.375,0c-26.813,0-48.735,21.477-48.869,47.876
	c0,0.034,0,0.068,0,0.102v149.38c0,11.23,9.103,20.333,20.333,20.333s20.333-9.103,20.333-20.333V145.76
	c0.043-3.867,3.942-7.38,8.202-7.38h0.837v154.192h107.701V138.38h0.837c4.261,0,8.159,3.514,8.202,7.38v149.312
	c0,11.23,9.103,20.333,20.333,20.333s20.333-9.103,20.333-20.333v-149.38c0-0.034,0-0.068,0-0.102
	C359.488,119.19,337.565,97.714,310.752,97.714z"/>
<path style="fill:#297F58;" d="M310.752,97.714H276.07c-0.395,10.721-10.496,19.589-21.026,19.589
	c-11.287,0-19.749-8.838-20.898-19.589h-32.768c-26.813,0-48.735,21.477-48.869,47.876v44.132h40.666V145.76
	c0.043-3.867,3.942-7.38,8.202-7.38h0.837c0,17.287,0,138.078,0,154.192h107.701c0-16.218,0-136.669,0-154.192h0.837
	c4.261,0,8.159,3.514,8.202,7.38v43.962h40.666V145.59C359.488,119.19,337.565,97.714,310.752,97.714z"/>
<g>
	<path style="fill:#96DBBF;" d="M225.935,97.714h-19.336c2.207,16.075,4.518,55.96-4.384,80.152c0,11.337,0,24.01,0,36.712
		C227.736,185.077,227.032,109.373,225.935,97.714z"/>
	<path style="fill:#96DBBF;" d="M286.087,97.714c-1.13,11.665-2.292,87.148,23.533,116.4l-0.119-16.42V177.17
		c-8.61-24.21-6.342-63.535-4.158-79.455L286.087,97.714L286.087,97.714z"/>
</g>
<circle style="fill:#FFB69E;" cx="256.063" cy="42.141" r="42.141"/>
<g>
	<rect x="185.259" y="1.43" style="fill:#64822D;" width="17.697" height="58.563"/>
	<rect x="309.776" y="1.43" style="fill:#64822D;" width="17.697" height="58.563"/>
</g>
<g>
</g>
<g>
</g>
<g>
</g>
<g>
</g>
<g>
</g>
<g>
</g>
<g>
</g>
<g>
</g>
<g>
</g>
<g>
</g>
<g>
</g>
<g>
</g>
<g>
</g>
<g>
</g>
<g>
</g>
</svg>
